<mxfile host="app.diagrams.net" modified="2022-11-20T03:09:09.809Z" agent="5.0 (Windows)" etag="kd0YJ9cyi-ZESO9ZVJua" version="20.5.3" type="github">
  <diagram id="7WAyedM_T6Ec4kt2yx-H" name="Page-1">
    <mxGraphModel dx="1422" dy="790" grid="1" gridSize="10" guides="1" tooltips="1" connect="1" arrows="1" fold="1" page="1" pageScale="1" pageWidth="850" pageHeight="1100" math="0" shadow="0">
      <root>
        <mxCell id="0" />
        <mxCell id="1" parent="0" />
        <mxCell id="PndahoAfc0O1e4ZNEpAo-3" value="POS AND INVENTORY SYSTEM" style="text;html=1;strokeColor=none;fillColor=none;align=center;verticalAlign=middle;whiteSpace=wrap;rounded=0;fontSize=27;fontStyle=0;fontFamily=Times New Roman;" vertex="1" parent="1">
          <mxGeometry x="425" y="30" width="720" height="20" as="geometry" />
        </mxCell>
        <mxCell id="PndahoAfc0O1e4ZNEpAo-4" value="" style="whiteSpace=wrap;html=1;aspect=fixed;fontFamily=Times New Roman;fontSize=27;" vertex="1" parent="1">
          <mxGeometry x="380" y="90" width="920" height="920" as="geometry" />
        </mxCell>
        <mxCell id="PndahoAfc0O1e4ZNEpAo-5" value="&lt;span style=&quot;white-space: pre;&quot;&gt;Customer&lt;br&gt;&lt;/span&gt;" style="shape=umlActor;verticalLabelPosition=bottom;verticalAlign=top;html=1;fontFamily=Times New Roman;fontSize=27;" vertex="1" parent="1">
          <mxGeometry x="180" y="240" width="40" height="100" as="geometry" />
        </mxCell>
        <mxCell id="PndahoAfc0O1e4ZNEpAo-10" value="" style="edgeStyle=orthogonalEdgeStyle;rounded=0;orthogonalLoop=1;jettySize=auto;html=1;fontFamily=Times New Roman;fontSize=27;" edge="1" parent="1" source="PndahoAfc0O1e4ZNEpAo-6" target="PndahoAfc0O1e4ZNEpAo-9">
          <mxGeometry relative="1" as="geometry" />
        </mxCell>
        <mxCell id="PndahoAfc0O1e4ZNEpAo-14" value="" style="edgeStyle=orthogonalEdgeStyle;rounded=0;orthogonalLoop=1;jettySize=auto;html=1;fontFamily=Times New Roman;fontSize=27;" edge="1" parent="1" source="PndahoAfc0O1e4ZNEpAo-6" target="PndahoAfc0O1e4ZNEpAo-13">
          <mxGeometry relative="1" as="geometry" />
        </mxCell>
        <mxCell id="PndahoAfc0O1e4ZNEpAo-6" value="Admin" style="shape=umlActor;verticalLabelPosition=bottom;verticalAlign=top;html=1;fontFamily=Times New Roman;fontSize=27;" vertex="1" parent="1">
          <mxGeometry x="180" y="500" width="40" height="100" as="geometry" />
        </mxCell>
        <mxCell id="PndahoAfc0O1e4ZNEpAo-7" value="Manager" style="shape=umlActor;verticalLabelPosition=bottom;verticalAlign=top;html=1;fontFamily=Times New Roman;fontSize=27;" vertex="1" parent="1">
          <mxGeometry x="1450" y="360" width="40" height="100" as="geometry" />
        </mxCell>
        <mxCell id="PndahoAfc0O1e4ZNEpAo-8" value="Cashier" style="shape=umlActor;verticalLabelPosition=bottom;verticalAlign=top;html=1;fontFamily=Times New Roman;fontSize=27;" vertex="1" parent="1">
          <mxGeometry x="1410" y="130" width="40" height="100" as="geometry" />
        </mxCell>
        <mxCell id="PndahoAfc0O1e4ZNEpAo-9" value="&lt;div&gt;Super &lt;br&gt;&lt;/div&gt;&lt;div&gt;Admin&lt;/div&gt;" style="shape=umlActor;verticalLabelPosition=bottom;verticalAlign=top;html=1;fontFamily=Times New Roman;fontSize=27;" vertex="1" parent="1">
          <mxGeometry x="140" y="790" width="40" height="100" as="geometry" />
        </mxCell>
        <mxCell id="PndahoAfc0O1e4ZNEpAo-13" value="Admin" style="shape=umlActor;verticalLabelPosition=bottom;verticalAlign=top;html=1;fontFamily=Times New Roman;fontSize=27;" vertex="1" parent="1">
          <mxGeometry x="220" y="790" width="40" height="100" as="geometry" />
        </mxCell>
        <mxCell id="PndahoAfc0O1e4ZNEpAo-17" value="Login" style="ellipse;whiteSpace=wrap;html=1;fontFamily=Times New Roman;fontSize=19;" vertex="1" parent="1">
          <mxGeometry x="772.5" y="110" width="257.5" height="50" as="geometry" />
        </mxCell>
        <mxCell id="PndahoAfc0O1e4ZNEpAo-18" value="Log Out" style="ellipse;whiteSpace=wrap;html=1;fontFamily=Times New Roman;fontSize=19;" vertex="1" parent="1">
          <mxGeometry x="500" y="100" width="205" height="50" as="geometry" />
        </mxCell>
        <mxCell id="PndahoAfc0O1e4ZNEpAo-34" value="&amp;lt;&amp;lt;include&amp;gt;&amp;gt;" style="endArrow=open;endSize=12;dashed=1;html=1;rounded=0;fontFamily=Times New Roman;fontSize=19;entryX=0.5;entryY=0;entryDx=0;entryDy=0;" edge="1" parent="1" source="PndahoAfc0O1e4ZNEpAo-17" target="PndahoAfc0O1e4ZNEpAo-41">
          <mxGeometry width="160" relative="1" as="geometry">
            <mxPoint x="740" y="440" as="sourcePoint" />
            <mxPoint x="900" y="440" as="targetPoint" />
          </mxGeometry>
        </mxCell>
        <mxCell id="PndahoAfc0O1e4ZNEpAo-39" value="Schedual Discounts" style="ellipse;whiteSpace=wrap;html=1;fontFamily=Times New Roman;fontSize=19;" vertex="1" parent="1">
          <mxGeometry x="1030" y="350" width="172" height="70" as="geometry" />
        </mxCell>
        <mxCell id="PndahoAfc0O1e4ZNEpAo-41" value="&lt;div&gt;Authorization&lt;br&gt;&lt;/div&gt;" style="ellipse;whiteSpace=wrap;html=1;fontFamily=Times New Roman;fontSize=19;" vertex="1" parent="1">
          <mxGeometry x="710" y="460" width="180" height="70" as="geometry" />
        </mxCell>
        <mxCell id="PndahoAfc0O1e4ZNEpAo-45" value="&amp;lt;&amp;lt;include&amp;gt;&amp;gt;" style="endArrow=open;endSize=12;dashed=1;html=1;rounded=0;fontFamily=Times New Roman;fontSize=19;entryX=1.022;entryY=0.6;entryDx=0;entryDy=0;exitX=0;exitY=0.5;exitDx=0;exitDy=0;entryPerimeter=0;" edge="1" parent="1" source="PndahoAfc0O1e4ZNEpAo-39" target="PndahoAfc0O1e4ZNEpAo-41">
          <mxGeometry width="160" relative="1" as="geometry">
            <mxPoint x="910" y="500" as="sourcePoint" />
            <mxPoint x="1147.5" y="425" as="targetPoint" />
          </mxGeometry>
        </mxCell>
        <mxCell id="PndahoAfc0O1e4ZNEpAo-46" value="" style="endArrow=open;endFill=1;endSize=12;html=1;rounded=0;fontFamily=Times New Roman;fontSize=19;entryX=1;entryY=0.5;entryDx=0;entryDy=0;" edge="1" parent="1" source="PndahoAfc0O1e4ZNEpAo-8" target="PndahoAfc0O1e4ZNEpAo-17">
          <mxGeometry width="160" relative="1" as="geometry">
            <mxPoint x="1070" y="265.9625153374234" as="sourcePoint" />
            <mxPoint x="1457.5" y="594.03" as="targetPoint" />
          </mxGeometry>
        </mxCell>
        <mxCell id="PndahoAfc0O1e4ZNEpAo-47" value="" style="endArrow=open;endFill=1;endSize=12;html=1;rounded=0;fontFamily=Times New Roman;fontSize=19;entryX=0;entryY=0.5;entryDx=0;entryDy=0;exitX=0.5;exitY=0.5;exitDx=0;exitDy=0;exitPerimeter=0;" edge="1" parent="1" source="PndahoAfc0O1e4ZNEpAo-6" target="PndahoAfc0O1e4ZNEpAo-17">
          <mxGeometry width="160" relative="1" as="geometry">
            <mxPoint x="230" y="316.9325153374234" as="sourcePoint" />
            <mxPoint x="617.5" y="645" as="targetPoint" />
          </mxGeometry>
        </mxCell>
        <mxCell id="PndahoAfc0O1e4ZNEpAo-48" value="" style="endArrow=open;endFill=1;endSize=12;html=1;rounded=0;fontFamily=Times New Roman;fontSize=19;entryX=1;entryY=0.5;entryDx=0;entryDy=0;" edge="1" parent="1" source="PndahoAfc0O1e4ZNEpAo-7" target="PndahoAfc0O1e4ZNEpAo-39">
          <mxGeometry width="160" relative="1" as="geometry">
            <mxPoint x="1410" y="277.2850678733032" as="sourcePoint" />
            <mxPoint x="877.5" y="205" as="targetPoint" />
          </mxGeometry>
        </mxCell>
        <mxCell id="PndahoAfc0O1e4ZNEpAo-49" value="" style="endArrow=open;endFill=1;endSize=12;html=1;rounded=0;fontFamily=Times New Roman;fontSize=19;exitX=0.5;exitY=0.5;exitDx=0;exitDy=0;exitPerimeter=0;" edge="1" parent="1" source="PndahoAfc0O1e4ZNEpAo-7" target="PndahoAfc0O1e4ZNEpAo-17">
          <mxGeometry width="160" relative="1" as="geometry">
            <mxPoint x="1440" y="605.6435643564357" as="sourcePoint" />
            <mxPoint x="940" y="190" as="targetPoint" />
          </mxGeometry>
        </mxCell>
        <mxCell id="PndahoAfc0O1e4ZNEpAo-55" value="Add New Items" style="ellipse;whiteSpace=wrap;html=1;fontFamily=Times New Roman;fontSize=19;" vertex="1" parent="1">
          <mxGeometry x="990" y="590" width="180" height="60" as="geometry" />
        </mxCell>
        <mxCell id="PndahoAfc0O1e4ZNEpAo-56" value="Bulk Item Import" style="ellipse;whiteSpace=wrap;html=1;fontFamily=Times New Roman;fontSize=19;" vertex="1" parent="1">
          <mxGeometry x="850" y="770" width="180" height="60" as="geometry" />
        </mxCell>
        <mxCell id="PndahoAfc0O1e4ZNEpAo-57" value="&amp;lt;&amp;lt;extend&amp;gt;&amp;gt;" style="endArrow=open;endSize=12;dashed=1;html=1;rounded=0;fontFamily=Times New Roman;fontSize=19;" edge="1" parent="1" source="PndahoAfc0O1e4ZNEpAo-55" target="PndahoAfc0O1e4ZNEpAo-56">
          <mxGeometry width="160" relative="1" as="geometry">
            <mxPoint x="740" y="690" as="sourcePoint" />
            <mxPoint x="900" y="690" as="targetPoint" />
          </mxGeometry>
        </mxCell>
        <mxCell id="PndahoAfc0O1e4ZNEpAo-58" value="" style="endArrow=open;endFill=1;endSize=12;html=1;rounded=0;fontFamily=Times New Roman;fontSize=19;entryX=1;entryY=0.5;entryDx=0;entryDy=0;" edge="1" parent="1" source="PndahoAfc0O1e4ZNEpAo-7" target="PndahoAfc0O1e4ZNEpAo-55">
          <mxGeometry width="160" relative="1" as="geometry">
            <mxPoint x="1420" y="510" as="sourcePoint" />
            <mxPoint x="1207.5" y="555" as="targetPoint" />
          </mxGeometry>
        </mxCell>
        <mxCell id="PndahoAfc0O1e4ZNEpAo-59" value="&amp;lt;&amp;lt;include&amp;gt;&amp;gt;" style="endArrow=open;endSize=12;dashed=1;html=1;rounded=0;fontFamily=Times New Roman;fontSize=19;entryX=1;entryY=1;entryDx=0;entryDy=0;" edge="1" parent="1" source="PndahoAfc0O1e4ZNEpAo-55" target="PndahoAfc0O1e4ZNEpAo-41">
          <mxGeometry width="160" relative="1" as="geometry">
            <mxPoint x="1036.04" y="493" as="sourcePoint" />
            <mxPoint x="930" y="460" as="targetPoint" />
          </mxGeometry>
        </mxCell>
        <mxCell id="PndahoAfc0O1e4ZNEpAo-60" value="" style="endArrow=open;endFill=1;endSize=12;html=1;rounded=0;fontFamily=Times New Roman;fontSize=19;entryX=0;entryY=0.5;entryDx=0;entryDy=0;" edge="1" parent="1" source="PndahoAfc0O1e4ZNEpAo-6" target="PndahoAfc0O1e4ZNEpAo-55">
          <mxGeometry width="160" relative="1" as="geometry">
            <mxPoint x="310" y="805" as="sourcePoint" />
            <mxPoint x="790" y="440" as="targetPoint" />
          </mxGeometry>
        </mxCell>
        <mxCell id="PndahoAfc0O1e4ZNEpAo-61" value="Itemized Refunds" style="ellipse;whiteSpace=wrap;html=1;fontFamily=Times New Roman;fontSize=19;" vertex="1" parent="1">
          <mxGeometry x="520" y="330" width="140" height="70" as="geometry" />
        </mxCell>
        <mxCell id="PndahoAfc0O1e4ZNEpAo-62" value="" style="endArrow=open;endFill=1;endSize=12;html=1;rounded=0;fontFamily=Times New Roman;fontSize=19;" edge="1" parent="1" source="PndahoAfc0O1e4ZNEpAo-8" target="PndahoAfc0O1e4ZNEpAo-61">
          <mxGeometry width="160" relative="1" as="geometry">
            <mxPoint x="1410" y="275.8807588075881" as="sourcePoint" />
            <mxPoint x="968.75" y="185" as="targetPoint" />
          </mxGeometry>
        </mxCell>
        <mxCell id="PndahoAfc0O1e4ZNEpAo-63" value="" style="endArrow=open;endFill=1;endSize=12;html=1;rounded=0;fontFamily=Times New Roman;fontSize=19;entryX=0;entryY=0.5;entryDx=0;entryDy=0;" edge="1" parent="1" source="PndahoAfc0O1e4ZNEpAo-5" target="PndahoAfc0O1e4ZNEpAo-61">
          <mxGeometry width="160" relative="1" as="geometry">
            <mxPoint x="210" y="560" as="sourcePoint" />
            <mxPoint x="711.25" y="185" as="targetPoint" />
          </mxGeometry>
        </mxCell>
        <mxCell id="PndahoAfc0O1e4ZNEpAo-64" value="&amp;lt;&amp;lt;include&amp;gt;&amp;gt;" style="endArrow=open;endSize=12;dashed=1;html=1;rounded=0;fontFamily=Times New Roman;fontSize=19;exitX=1;exitY=1;exitDx=0;exitDy=0;" edge="1" parent="1" source="PndahoAfc0O1e4ZNEpAo-61" target="PndahoAfc0O1e4ZNEpAo-41">
          <mxGeometry width="160" relative="1" as="geometry">
            <mxPoint x="668.54" y="450" as="sourcePoint" />
            <mxPoint x="540" y="377" as="targetPoint" />
          </mxGeometry>
        </mxCell>
        <mxCell id="PndahoAfc0O1e4ZNEpAo-66" value="Add New Categories" style="ellipse;whiteSpace=wrap;html=1;fontFamily=Times New Roman;fontSize=19;" vertex="1" parent="1">
          <mxGeometry x="1080" y="850" width="180" height="60" as="geometry" />
        </mxCell>
        <mxCell id="PndahoAfc0O1e4ZNEpAo-67" value="&amp;lt;&amp;lt;extend&amp;gt;&amp;gt;" style="endArrow=open;endSize=12;dashed=1;html=1;rounded=0;fontFamily=Times New Roman;fontSize=19;entryX=0.5;entryY=0;entryDx=0;entryDy=0;" edge="1" parent="1" source="PndahoAfc0O1e4ZNEpAo-55" target="PndahoAfc0O1e4ZNEpAo-66">
          <mxGeometry width="160" relative="1" as="geometry">
            <mxPoint x="1207.4465348870579" y="591.455010664344" as="sourcePoint" />
            <mxPoint x="1120.0046179884773" y="639.9952122286236" as="targetPoint" />
          </mxGeometry>
        </mxCell>
        <mxCell id="PndahoAfc0O1e4ZNEpAo-68" value="Manage Users" style="ellipse;whiteSpace=wrap;html=1;fontFamily=Times New Roman;fontSize=19;" vertex="1" parent="1">
          <mxGeometry x="425" y="610" width="140" height="70" as="geometry" />
        </mxCell>
        <mxCell id="PndahoAfc0O1e4ZNEpAo-69" value="" style="endArrow=open;endFill=1;endSize=12;html=1;rounded=0;fontFamily=Times New Roman;fontSize=19;exitX=0.5;exitY=0.5;exitDx=0;exitDy=0;exitPerimeter=0;" edge="1" parent="1" source="PndahoAfc0O1e4ZNEpAo-6" target="PndahoAfc0O1e4ZNEpAo-68">
          <mxGeometry width="160" relative="1" as="geometry">
            <mxPoint x="210" y="560" as="sourcePoint" />
            <mxPoint x="767.5" y="165" as="targetPoint" />
          </mxGeometry>
        </mxCell>
        <mxCell id="PndahoAfc0O1e4ZNEpAo-70" value="" style="endArrow=open;endFill=1;endSize=12;html=1;rounded=0;fontFamily=Times New Roman;fontSize=19;entryX=1;entryY=0.5;entryDx=0;entryDy=0;" edge="1" parent="1" source="PndahoAfc0O1e4ZNEpAo-7" target="PndahoAfc0O1e4ZNEpAo-68">
          <mxGeometry width="160" relative="1" as="geometry">
            <mxPoint x="1430" y="520" as="sourcePoint" />
            <mxPoint x="1256" y="550" as="targetPoint" />
          </mxGeometry>
        </mxCell>
        <mxCell id="PndahoAfc0O1e4ZNEpAo-71" value="&amp;lt;&amp;lt;include&amp;gt;&amp;gt;" style="endArrow=open;endSize=12;dashed=1;html=1;rounded=0;fontFamily=Times New Roman;fontSize=19;exitX=0.914;exitY=0.243;exitDx=0;exitDy=0;entryX=0;entryY=0.5;entryDx=0;entryDy=0;exitPerimeter=0;" edge="1" parent="1" source="PndahoAfc0O1e4ZNEpAo-68" target="PndahoAfc0O1e4ZNEpAo-41">
          <mxGeometry width="160" relative="1" as="geometry">
            <mxPoint x="603.7474746830585" y="363.42873734152926" as="sourcePoint" />
            <mxPoint x="659.7562596565322" y="440.0011070277316" as="targetPoint" />
          </mxGeometry>
        </mxCell>
        <mxCell id="PndahoAfc0O1e4ZNEpAo-72" value="&lt;div&gt;Assign Users&lt;/div&gt;" style="ellipse;whiteSpace=wrap;html=1;fontFamily=Times New Roman;fontSize=19;" vertex="1" parent="1">
          <mxGeometry x="440" y="470" width="142.5" height="60" as="geometry" />
        </mxCell>
        <mxCell id="PndahoAfc0O1e4ZNEpAo-73" value="&amp;lt;&amp;lt;extend&amp;gt;&amp;gt;" style="endArrow=open;endSize=12;dashed=1;html=1;rounded=0;fontFamily=Times New Roman;fontSize=19;exitX=0.442;exitY=1.033;exitDx=0;exitDy=0;exitPerimeter=0;entryX=0.5;entryY=0;entryDx=0;entryDy=0;" edge="1" parent="1" source="PndahoAfc0O1e4ZNEpAo-72" target="PndahoAfc0O1e4ZNEpAo-68">
          <mxGeometry width="160" relative="1" as="geometry">
            <mxPoint x="420" y="460" as="sourcePoint" />
            <mxPoint x="542.04" y="407.99" as="targetPoint" />
          </mxGeometry>
        </mxCell>
        <mxCell id="PndahoAfc0O1e4ZNEpAo-74" value="Set Sales Target" style="ellipse;whiteSpace=wrap;html=1;fontFamily=Times New Roman;fontSize=19;" vertex="1" parent="1">
          <mxGeometry x="1090" y="510" width="140" height="70" as="geometry" />
        </mxCell>
        <mxCell id="PndahoAfc0O1e4ZNEpAo-75" value="" style="endArrow=open;endFill=1;endSize=12;html=1;rounded=0;fontFamily=Times New Roman;fontSize=19;entryX=1;entryY=0.5;entryDx=0;entryDy=0;" edge="1" parent="1" source="PndahoAfc0O1e4ZNEpAo-7" target="PndahoAfc0O1e4ZNEpAo-74">
          <mxGeometry width="160" relative="1" as="geometry">
            <mxPoint x="1430" y="520" as="sourcePoint" />
            <mxPoint x="1240" y="530" as="targetPoint" />
          </mxGeometry>
        </mxCell>
        <mxCell id="PndahoAfc0O1e4ZNEpAo-76" value="&amp;lt;&amp;lt;include&amp;gt;&amp;gt;" style="endArrow=open;endSize=12;dashed=1;html=1;rounded=0;fontFamily=Times New Roman;fontSize=19;exitX=0.021;exitY=0.4;exitDx=0;exitDy=0;exitPerimeter=0;" edge="1" parent="1" source="PndahoAfc0O1e4ZNEpAo-74" target="PndahoAfc0O1e4ZNEpAo-41">
          <mxGeometry width="160" relative="1" as="geometry">
            <mxPoint x="1079.9974457201017" y="436.823935716709" as="sourcePoint" />
            <mxPoint x="919.8596103067896" y="369.99873734152925" as="targetPoint" />
          </mxGeometry>
        </mxCell>
        <mxCell id="PndahoAfc0O1e4ZNEpAo-79" value="Import/Print Barcodes" style="ellipse;whiteSpace=wrap;html=1;fontFamily=Times New Roman;fontSize=19;" vertex="1" parent="1">
          <mxGeometry x="800" y="640" width="140" height="70" as="geometry" />
        </mxCell>
        <mxCell id="PndahoAfc0O1e4ZNEpAo-80" value="&amp;lt;&amp;lt;extend&amp;gt;&amp;gt;" style="endArrow=open;endSize=12;dashed=1;html=1;rounded=0;fontFamily=Times New Roman;fontSize=19;exitX=0;exitY=1;exitDx=0;exitDy=0;entryX=0.993;entryY=0.414;entryDx=0;entryDy=0;entryPerimeter=0;" edge="1" parent="1" source="PndahoAfc0O1e4ZNEpAo-55" target="PndahoAfc0O1e4ZNEpAo-79">
          <mxGeometry width="160" relative="1" as="geometry">
            <mxPoint x="1124.2861698129682" y="558.7494906952238" as="sourcePoint" />
            <mxPoint x="1005.7224609470622" y="691.2513671768133" as="targetPoint" />
          </mxGeometry>
        </mxCell>
        <mxCell id="PndahoAfc0O1e4ZNEpAo-81" value="&lt;div&gt;Generate &amp;amp;&lt;/div&gt;&lt;div&gt;Download Reports&lt;/div&gt;" style="ellipse;whiteSpace=wrap;html=1;fontFamily=Times New Roman;fontSize=19;" vertex="1" parent="1">
          <mxGeometry x="660" y="900" width="202.5" height="70" as="geometry" />
        </mxCell>
        <mxCell id="PndahoAfc0O1e4ZNEpAo-83" value="" style="endArrow=open;endFill=1;endSize=12;html=1;rounded=0;fontFamily=Times New Roman;fontSize=19;exitX=0.525;exitY=0.62;exitDx=0;exitDy=0;exitPerimeter=0;" edge="1" parent="1" source="PndahoAfc0O1e4ZNEpAo-6" target="PndahoAfc0O1e4ZNEpAo-81">
          <mxGeometry width="160" relative="1" as="geometry">
            <mxPoint x="230" y="559.2941176470588" as="sourcePoint" />
            <mxPoint x="1060" y="530" as="targetPoint" />
          </mxGeometry>
        </mxCell>
        <mxCell id="PndahoAfc0O1e4ZNEpAo-84" value="" style="endArrow=open;endFill=1;endSize=12;html=1;rounded=0;fontFamily=Times New Roman;fontSize=19;entryX=1;entryY=0.5;entryDx=0;entryDy=0;exitX=0.5;exitY=0.5;exitDx=0;exitDy=0;exitPerimeter=0;" edge="1" parent="1" source="PndahoAfc0O1e4ZNEpAo-7" target="PndahoAfc0O1e4ZNEpAo-81">
          <mxGeometry width="160" relative="1" as="geometry">
            <mxPoint x="1450" y="502.608695652174" as="sourcePoint" />
            <mxPoint x="1240" y="530" as="targetPoint" />
          </mxGeometry>
        </mxCell>
        <mxCell id="PndahoAfc0O1e4ZNEpAo-85" value="&amp;lt;&amp;lt;include&amp;gt;&amp;gt;" style="endArrow=open;endSize=12;dashed=1;html=1;rounded=0;fontFamily=Times New Roman;fontSize=19;exitX=0.533;exitY=0;exitDx=0;exitDy=0;entryX=0.456;entryY=1;entryDx=0;entryDy=0;entryPerimeter=0;exitPerimeter=0;" edge="1" parent="1" source="PndahoAfc0O1e4ZNEpAo-81" target="PndahoAfc0O1e4ZNEpAo-41">
          <mxGeometry width="160" relative="1" as="geometry">
            <mxPoint x="625.4974746830585" y="639.9987373415292" as="sourcePoint" />
            <mxPoint x="642.5026436067328" y="805.2764360673282" as="targetPoint" />
          </mxGeometry>
        </mxCell>
        <mxCell id="PndahoAfc0O1e4ZNEpAo-86" value="Checkout" style="ellipse;whiteSpace=wrap;html=1;fontFamily=Times New Roman;fontSize=19;" vertex="1" parent="1">
          <mxGeometry x="640" y="240" width="140" height="70" as="geometry" />
        </mxCell>
        <mxCell id="PndahoAfc0O1e4ZNEpAo-87" value="&amp;lt;&amp;lt;include&amp;gt;&amp;gt;" style="endArrow=open;endSize=12;dashed=1;html=1;rounded=0;fontFamily=Times New Roman;fontSize=19;entryX=0.389;entryY=0.029;entryDx=0;entryDy=0;exitX=0.614;exitY=1;exitDx=0;exitDy=0;exitPerimeter=0;entryPerimeter=0;" edge="1" parent="1" source="PndahoAfc0O1e4ZNEpAo-86" target="PndahoAfc0O1e4ZNEpAo-41">
          <mxGeometry width="160" relative="1" as="geometry">
            <mxPoint x="889.2113615098724" y="189.96261324987063" as="sourcePoint" />
            <mxPoint x="810" y="470" as="targetPoint" />
          </mxGeometry>
        </mxCell>
        <mxCell id="PndahoAfc0O1e4ZNEpAo-88" value="" style="endArrow=open;endFill=1;endSize=12;html=1;rounded=0;fontFamily=Times New Roman;fontSize=19;" edge="1" parent="1" source="PndahoAfc0O1e4ZNEpAo-5" target="PndahoAfc0O1e4ZNEpAo-86">
          <mxGeometry width="160" relative="1" as="geometry">
            <mxPoint x="230" y="283.33333333333326" as="sourcePoint" />
            <mxPoint x="774.1950000000002" y="158" as="targetPoint" />
          </mxGeometry>
        </mxCell>
        <mxCell id="PndahoAfc0O1e4ZNEpAo-89" value="" style="endArrow=open;endFill=1;endSize=12;html=1;rounded=0;fontFamily=Times New Roman;fontSize=19;" edge="1" parent="1" source="PndahoAfc0O1e4ZNEpAo-8" target="PndahoAfc0O1e4ZNEpAo-86">
          <mxGeometry width="160" relative="1" as="geometry">
            <mxPoint x="1420" y="188.7951807228916" as="sourcePoint" />
            <mxPoint x="1025" y="165" as="targetPoint" />
          </mxGeometry>
        </mxCell>
        <mxCell id="PndahoAfc0O1e4ZNEpAo-90" value="Generate Invoice" style="ellipse;whiteSpace=wrap;html=1;fontFamily=Times New Roman;fontSize=19;" vertex="1" parent="1">
          <mxGeometry x="420" y="170" width="205" height="50" as="geometry" />
        </mxCell>
        <mxCell id="PndahoAfc0O1e4ZNEpAo-91" value="&amp;lt;&amp;lt;extend&amp;gt;&amp;gt;" style="endArrow=open;endSize=12;dashed=1;html=1;rounded=0;fontFamily=Times New Roman;fontSize=19;exitX=1;exitY=0.5;exitDx=0;exitDy=0;entryX=0.5;entryY=0;entryDx=0;entryDy=0;" edge="1" parent="1" source="PndahoAfc0O1e4ZNEpAo-90" target="PndahoAfc0O1e4ZNEpAo-86">
          <mxGeometry width="160" relative="1" as="geometry">
            <mxPoint x="484.7629533411815" y="388.07467520361394" as="sourcePoint" />
            <mxPoint x="389.996594290492" y="510.0000930550819" as="targetPoint" />
          </mxGeometry>
        </mxCell>
        <mxCell id="PndahoAfc0O1e4ZNEpAo-92" value="" style="endArrow=open;endFill=1;endSize=12;html=1;rounded=0;fontFamily=Times New Roman;fontSize=19;entryX=0;entryY=0.5;entryDx=0;entryDy=0;exitX=0;exitY=0.061;exitDx=0;exitDy=0;exitPerimeter=0;" edge="1" parent="1" source="PndahoAfc0O1e4ZNEpAo-4" target="PndahoAfc0O1e4ZNEpAo-18">
          <mxGeometry width="160" relative="1" as="geometry">
            <mxPoint x="140" y="122.35176470588243" as="sourcePoint" />
            <mxPoint x="560.1207938777525" y="109.9952707683014" as="targetPoint" />
          </mxGeometry>
        </mxCell>
      </root>
    </mxGraphModel>
  </diagram>
</mxfile>
